<svg width="16" height="16" viewBox="0 0 16 16" fill="none" xmlns="http://www.w3.org/2000/svg">
<g clip-path="url(#clip0_4_84)">
<path d="M8.00007 4C7.47266 4 6.95708 4.1564 6.51855 4.44941C6.08002 4.74243 5.73823 5.15891 5.53639 5.64618C5.33456 6.13345 5.28175 6.66962 5.38464 7.18691C5.48754 7.70419 5.74151 8.17935 6.11445 8.55229C6.48739 8.92523 6.96255 9.1792 7.47983 9.28209C7.99711 9.38499 8.53329 9.33218 9.02056 9.13035C9.50783 8.92851 9.92431 8.58672 10.2173 8.14819C10.5103 7.70966 10.6667 7.19408 10.6667 6.66667C10.6667 5.95942 10.3858 5.28115 9.88569 4.78105C9.38559 4.28095 8.70732 4 8.00007 4ZM8.00007 8C7.73636 8 7.47858 7.9218 7.25931 7.77529C7.04005 7.62878 6.86915 7.42055 6.76823 7.17691C6.66732 6.93328 6.64091 6.66519 6.69236 6.40655C6.74381 6.14791 6.87079 5.91033 7.05726 5.72386C7.24373 5.53739 7.48131 5.4104 7.73995 5.35895C7.99859 5.30751 8.26668 5.33391 8.51032 5.43483C8.75395 5.53574 8.96219 5.70664 9.1087 5.92591C9.25521 6.14517 9.33341 6.40296 9.33341 6.66667C9.33341 7.02029 9.19293 7.35943 8.94288 7.60948C8.69283 7.85952 8.35369 8 8.00007 8Z" fill="#CAC8C8"/>
<path d="M7.99995 16.0001C7.43858 16.003 6.88469 15.8713 6.38466 15.6161C5.88463 15.361 5.45301 14.9897 5.12595 14.5334C2.58528 11.0288 1.29662 8.39411 1.29662 6.70211C1.29662 4.92428 2.00286 3.21926 3.25998 1.96214C4.5171 0.705021 6.22211 -0.0012207 7.99995 -0.0012207C9.77778 -0.0012207 11.4828 0.705021 12.7399 1.96214C13.997 3.21926 14.7033 4.92428 14.7033 6.70211C14.7033 8.39411 13.4146 11.0288 10.8739 14.5334C10.5469 14.9897 10.1153 15.361 9.61524 15.6161C9.11521 15.8713 8.56132 16.003 7.99995 16.0001ZM7.99995 1.45411C6.60823 1.4557 5.27396 2.00926 4.28986 2.99336C3.30577 3.97746 2.7522 5.31172 2.75062 6.70345C2.75062 8.04345 4.01262 10.5214 6.30328 13.6808C6.49775 13.9486 6.75286 14.1666 7.04776 14.317C7.34265 14.4673 7.66895 14.5456 7.99995 14.5456C8.33095 14.5456 8.65724 14.4673 8.95214 14.317C9.24704 14.1666 9.50215 13.9486 9.69662 13.6808C11.9873 10.5214 13.2493 8.04345 13.2493 6.70345C13.2477 5.31172 12.6941 3.97746 11.71 2.99336C10.7259 2.00926 9.39167 1.4557 7.99995 1.45411Z" fill="#CAC8C8"/>
</g>
<defs>
<clipPath id="clip0_4_84">
<rect width="16" height="16" fill="white"/>
</clipPath>
</defs>
</svg>
